<?xml version="1.0" encoding="UTF-8" standalone="no"?>
<svg width="75px" height="30px" viewBox="0 0 75 30" version="1.1" xmlns="http://www.w3.org/2000/svg" xmlns:xlink="http://www.w3.org/1999/xlink">
    <!-- Generator: Sketch 3.6.1 (26313) - http://www.bohemiancoding.com/sketch -->
    <title>vanilla-logo</title>
    <desc>Created with Sketch.</desc>
    <defs></defs>
    <g id="Dashboard" stroke="none" stroke-width="1" fill="none" fill-rule="evenodd">
        <g id="Dashboard_Moderation" transform="translate(-104.000000, -107.000000)" fill="#FFFFFF">
            <g id="Group-2" transform="translate(0.000000, 92.000000)">
                <path d="M177.318872,31.1994804 C176.153974,31.0334235 175.322219,32.1697875 174.522969,32.5454378 C175.212348,30.7001333 173.662533,29.510231 173.281,29.1285504 C167.94409,25.6013507 160.401669,34.9342143 164.168761,38.5506934 C165.797265,39.8304634 168.370042,40.1472804 170.174458,38.7577864 C170.428029,41.6678254 176.136471,42.1226063 176.179713,39.2752247 C169.228861,41.065226 177.446246,35.2389705 178.457736,33.062729 C178.864862,32.1872904 178.359485,31.3470047 177.318872,31.1994804 Z M169.553326,37.5150813 C168.512713,37.4630139 167.796565,37.3996211 167.585942,36.4797634 C167.283245,33.7931436 169.095603,32.0708006 170.795296,31.6136664 C175.493277,30.3730205 171.624256,37.620687 169.553326,37.5150813 Z M140.561483,36.2729646 C140.33777,34.4892879 142.17572,31.9185696 142.114386,29.8532288 C142.078939,28.6397933 141.677255,27.3869395 140.458084,27.0573263 C137.395667,26.6396103 136.04412,28.4974168 134.659921,30.2674148 C133.970543,28.7949659 132.347186,27.3953232 130.828848,28.7142173 C130.163444,29.4597815 131.563234,31.4896753 132.174805,32.9591825 C132.615466,34.0192104 133.148201,35.0976236 133.21027,36.1695652 C133.25263,36.902039 132.806233,37.9385336 133.417363,38.0332551 C135.406368,38.2709413 134.852453,34.8531715 135.280759,33.062729 C135.672588,31.4292242 136.437126,30.6317396 138.076514,30.060616 C140.168036,29.4722836 133.636811,41.5185361 142.21808,40.7247286 C143.267224,40.2665648 144.552142,38.879277 143.564184,37.6190691 C142.173514,37.6995235 140.761663,37.8664628 140.561483,36.2729646 Z M147.674569,27.6546307 C147.354663,26.6665265 145.933105,26.0395113 144.90014,26.8671478 C143.556536,27.9765956 143.633314,34.4145697 144.111039,35.360314 C144.396822,36.5490396 146.411125,37.2709234 146.92518,35.8537778 C147.144187,35.0921815 146.386856,35.9031977 145.984878,35.2502958 C144.156635,32.4305659 148.264519,29.4811086 147.674569,27.6546307 Z M120.521117,25.9191973 C122.039456,24.7287067 124.111857,24.0977203 126.008493,23.9513726 C127.070286,21.1501751 123.598243,19.9355629 121.245649,20.4310858 C118.40871,21.1303188 116.011991,25.7893229 115.136699,28.6108179 C114.041666,32.1415476 114.72472,36.4222539 115.654579,40.1037438 C113.746323,38.3191846 111.352104,35.7664104 110.270455,33.1664226 C110.102045,32.761797 109.628585,31.5465965 109.545336,31.3025856 C108.780651,29.0451543 108.911113,26.1179065 109.855975,24.676051 C108.646658,24.4432184 107.485731,25.1139173 106.542634,25.9191973 C105.84046,26.5185609 104.867211,27.7284664 104.678797,28.5075656 C104.301676,30.0698822 105.337288,31.8485581 106.025196,33.1664226 C107.400129,35.8012691 108.311309,36.9874943 110.270455,38.9644381 C112.197097,40.9100533 113.917381,42.2389491 116.275711,43.6241776 C117.443698,44.3101732 119.025282,45.0591203 120.106343,44.141616 C119.278412,42.1234888 113.544378,31.386423 120.521117,25.9191973 Z M163.8718,40.5305789 C160.575227,39.2761072 159.618745,35.8343628 159.729499,32.0405015 C167.445184,30.3918471 171.279934,21.8380827 169.980161,19.822456 C168.603169,17.8474242 166.560332,18.9033337 164.492344,20.1336838 C163.177421,20.9160188 158.617845,23.8398836 157.244236,30.9017842 C156.639724,31.1952149 156.073749,31.235957 155.365838,30.9122271 C155.089469,30.8066214 154.913851,31.027099 154.946504,31.3336201 C154.981363,31.5189448 155.673683,32.1034531 156.954188,32.3084869 C156.589275,35.5535812 157.649303,40.7282586 159.729499,42.9122955 C160.214726,43.4222325 161.238572,43.876131 161.903534,43.8439198 C162.86384,43.7986182 164.974188,42.5641498 164.699437,41.4630857 C164.602215,41.0703739 164.617217,40.828128 163.8718,40.5305789 Z M167.288393,20.8582151 C168.330624,21.3113781 165.859334,25.3948461 165.32101,26.2424859 C164.198913,28.0096893 162.304924,29.4786082 160.143244,30.1768116 C161.305347,26.2155697 165.844184,20.2161974 167.288393,20.8582151 Z M131.225678,38.1365074 C129.281975,34.8021337 129.6866,31.1047588 130.190507,26.954221 C127.999557,25.2348197 126.286628,28.0146901 125.841701,29.9570695 C123.601184,28.018073 120.61025,29.7740981 119.836298,31.096228 C118.778477,32.9018201 118.708907,35.5098975 119.525512,37.5150813 C120.720121,40.449242 126.784798,42.0677443 128.430217,37.8261621 C129.277856,39.0412155 131.737527,40.7264936 132.619143,39.9175366 C133.368973,39.2140381 131.825924,39.3859783 131.225678,38.1365074 Z M124.702396,37.6190691 C122.898421,37.0973653 122.33877,34.3367628 122.838706,32.234357 C123.21715,31.1734467 124.689894,31.1054943 125.634461,31.7169187 C126.743321,32.4346842 127.031456,34.3572073 127.394752,35.7546438 C126.945413,37.0407384 125.741538,37.9195598 124.702396,37.6190691 Z M155.421141,39.1637357 C150.536364,38.346395 151.302373,30.2690327 153.047073,26.8315537 C157.413676,26.963046 163.243314,20.721722 162.098125,16.289373 C161.881766,15.468061 161.243572,15.2674396 160.752168,15.1502144 C155.053433,13.7979324 152.079707,21.920008 150.605052,25.711663 C149.257477,25.5057467 147.851951,24.8068078 147.602498,23.8478261 C150.476796,24.8143091 151.123667,20.1450092 148.637669,19.6027138 C147.327894,19.4231254 146.183881,20.1529517 146.048859,21.7773374 C146.048859,22.5821761 146.193148,23.4923262 146.774273,24.4688109 C147.506306,25.7003376 149.030233,26.276168 150.294707,26.6437286 C149.688872,28.720689 149.061268,31.0057719 148.948749,33.3739568 C148.845203,35.5318129 149.14084,43.0557015 153.918393,42.3814726 C154.984598,42.2311537 155.43379,40.7520861 155.78223,39.5863055 C155.899161,39.2341885 155.675301,39.2158031 155.421141,39.1637357 Z M158.991877,16.4967601 C162.666748,16.4368973 156.398949,25.6831289 153.520533,25.6038511 C154.780594,22.514812 157.146279,16.5194109 158.991877,16.4967601 Z" id="vanilla-logo"></path>
            </g>
        </g>
    </g>
</svg>